<svg width="101" height="123" viewBox="0 0 101 123" fill="none" xmlns="http://www.w3.org/2000/svg">
<g clip-path="url(#clip0_301_1264)">
<path d="M72.638 0.237793H50.4801V25.7301H72.638V0.237793Z" fill="currentColor"/>
<path d="M50.4801 46.4629H72.638V82.4157C72.7392 91.067 70.2771 99.5531 65.5645 106.795C60.9114 113.832 51.9289 122.204 35.3106 122.204C17.2093 122.204 6.65877 113.643 0.965912 108.952L14.9424 91.7121C20.4989 96.249 25.8509 99.9813 35.3958 99.9813C42.6226 99.9813 45.5032 97.0366 47.1906 94.4685C49.4845 90.9015 50.6711 86.7301 50.5995 82.4842L50.4801 46.4629Z" fill="currentColor"/>
<path d="M39.1797 30.3696H17.0218V52.6262H39.1797V30.3696Z" fill="currentColor"/>
<path d="M84.2453 111.76C84.2453 116.502 81.842 119.053 78.4842 119.053C75.1265 119.053 72.9277 116.023 72.9277 112C72.9277 107.976 75.1946 104.792 78.6717 104.792C82.1488 104.792 84.2453 107.925 84.2453 111.76ZM75.5014 111.948C75.5014 114.807 76.6434 116.913 78.6035 116.913C80.5637 116.913 81.6716 114.688 81.6716 111.777C81.6716 109.226 80.6489 106.829 78.6035 106.829C76.5582 106.829 75.5014 109.141 75.5014 111.948Z" fill="currentColor"/>
<path d="M88.6428 104.998V118.831H86.1883V104.998H88.6428Z" fill="currentColor"/>
<path d="M91.3017 118.831V104.998H94.0288L96.9605 110.699C97.7152 112.189 98.3866 113.721 98.9717 115.287C98.8183 113.575 98.7501 111.606 98.7501 109.415V104.998H101V118.831H98.4604L95.4946 113.01C94.7094 111.481 94.0095 109.909 93.3982 108.302C93.3982 110.014 93.5175 111.948 93.5175 114.328V118.814L91.3017 118.831Z" fill="currentColor"/>
</g>
<defs>
<clipPath id="clip0_301_1264">
<rect width="100.034" height="121.966" fill="currentColor" transform="translate(0.965912 0.237793)"/>
</clipPath>
</defs>
</svg>
