<svg width="30" height="30" viewBox="0 0 30 30" fill="none" xmlns="http://www.w3.org/2000/svg">
<path d="M3.17368 13.8094C2.30093 13.8094 1.55379 13.4985 0.932258 12.8766C0.310753 12.2547 0 11.5002 0 10.6131V3.19632C0 2.31734 0.310753 1.56487 0.932258 0.938909C1.55379 0.31297 2.30093 0 3.17368 0H10.6131C11.4859 0 12.233 0.31297 12.8545 0.938909C13.4761 1.56487 13.7868 2.31734 13.7868 3.19632V10.6131C13.7868 11.5002 13.4761 12.2547 12.8545 12.8766C12.233 13.4985 11.4859 13.8094 10.6131 13.8094H3.17368ZM3.17368 30C2.30093 30 1.55379 29.6892 0.932258 29.0677C0.310753 28.4462 0 27.6991 0 26.8263V19.3869C0 18.5141 0.310753 17.767 0.932258 17.1455C1.55379 16.524 2.30093 16.2132 3.17368 16.2132H10.6131C11.4859 16.2132 12.233 16.524 12.8545 17.1455C13.4761 17.767 13.7868 18.5141 13.7868 19.3869V26.8263C13.7868 27.6991 13.4761 28.4462 12.8545 29.0677C12.233 29.6892 11.4859 30 10.6131 30H3.17368ZM19.3869 13.8094C18.4998 13.8094 17.7453 13.4985 17.1234 12.8766C16.5015 12.2547 16.1906 11.5002 16.1906 10.6131V3.19632C16.1906 2.31734 16.5015 1.56487 17.1234 0.938909C17.7453 0.31297 18.4998 0 19.3869 0H26.8037C27.6827 0 28.4351 0.31297 29.0611 0.938909C29.687 1.56487 30 2.31734 30 3.19632V10.6131C30 11.5002 29.687 12.2547 29.0611 12.8766C28.4351 13.4985 27.6827 13.8094 26.8037 13.8094H19.3869ZM19.3869 30C18.4998 30 17.7453 29.6892 17.1234 29.0677C16.5015 28.4462 16.1906 27.6991 16.1906 26.8263V19.3869C16.1906 18.5141 16.5015 17.767 17.1234 17.1455C17.7453 16.524 18.4998 16.2132 19.3869 16.2132H26.8037C27.6827 16.2132 28.4351 16.524 29.0611 17.1455C29.687 17.767 30 18.5141 30 19.3869V26.8263C30 27.6991 29.687 28.4462 29.0611 29.0677C28.4351 29.6892 27.6827 30 26.8037 30H19.3869ZM3.17368 10.6131H10.6131V3.19632H3.17368V10.6131ZM19.3869 10.6131H26.8037V3.19632H19.3869V10.6131ZM19.3869 26.8263H26.8037V19.3869H19.3869V26.8263ZM3.17368 26.8263H10.6131V19.3869H3.17368V26.8263Z" fill="#42526e"/>
</svg>
