<svg width="28" height="30" viewBox="0 0 28 30" fill="none" xmlns="http://www.w3.org/2000/svg">
<path d="M13.5238 23.6154C11.9433 23.6154 10.4291 23.8748 8.98128 24.3936C7.53345 24.9124 6.15802 25.7268 4.85497 26.8368V27.1326H22.2289V27.054C21.0224 25.9681 19.6651 25.1235 18.1569 24.5203C16.6487 23.917 15.1044 23.6154 13.5238 23.6154ZM2.86735 25.3779C4.26692 24.057 5.87108 23.0336 7.67983 22.3076C9.48855 21.5816 11.4426 21.2186 13.5419 21.2186C15.6413 21.2186 17.5893 21.5747 19.386 22.2871C21.1826 22.9995 22.7928 24.0161 24.2165 25.337V5.05955H2.86735V25.3779ZM13.5419 18.43C12.1392 18.43 10.9477 17.9397 9.96722 16.9593C8.9868 15.9789 8.49659 14.7873 8.49659 13.3846C8.49659 11.9819 8.9868 10.7937 9.96722 9.82008C10.9477 8.84647 12.1392 8.35966 13.5419 8.35966C14.9447 8.35966 16.1362 8.84647 17.1167 9.82008C18.0971 10.7937 18.5873 11.9819 18.5873 13.3846C18.5873 14.7873 18.0971 15.9789 17.1167 16.9593C16.1362 17.9397 14.9447 18.43 13.5419 18.43ZM13.5553 16.0332C14.2776 16.0332 14.894 15.7721 15.4044 15.25C15.9149 14.7279 16.1701 14.1036 16.1701 13.3773C16.1701 12.6509 15.9104 12.0325 15.3911 11.5221C14.8718 11.0117 14.251 10.7565 13.5286 10.7565C12.8063 10.7565 12.1899 11.0161 11.6795 11.5354C11.169 12.0547 10.9138 12.6756 10.9138 13.3979C10.9138 14.1203 11.1735 14.7401 11.6928 15.2573C12.2121 15.7745 12.8329 16.0332 13.5553 16.0332ZM2.86735 30C2.08294 30 1.40896 29.7182 0.845388 29.1546C0.281796 28.591 0 27.9171 0 27.1326V5.05955C0 4.26952 0.281796 3.5907 0.845388 3.0231C1.40896 2.45553 2.08294 2.17174 2.86735 2.17174H5.03595V1.34239C5.03595 0.97124 5.16873 0.65472 5.43428 0.392832C5.69984 0.130944 6.01584 0 6.38229 0C6.75901 0 7.0789 0.130944 7.34194 0.392832C7.60497 0.65472 7.73648 0.97124 7.73648 1.34239V2.17174H19.3474V1.34239C19.3474 0.97124 19.4802 0.65472 19.7457 0.392832C20.0113 0.130944 20.3273 0 20.6938 0C21.0705 0 21.3903 0.130944 21.6534 0.392832C21.9164 0.65472 22.0479 0.97124 22.0479 1.34239V2.17174H24.2165C25.0066 2.17174 25.6854 2.45553 26.253 3.0231C26.8206 3.5907 27.1043 4.26952 27.1043 5.05955V27.1326C27.1043 27.9171 26.8206 28.591 26.253 29.1546C25.6854 29.7182 25.0066 30 24.2165 30H2.86735ZM13.5419 27.1326H22.2289H4.85497H13.5419Z" fill="#42526e"/>
</svg>
