<svg width="30" height="30" viewBox="0 0 30 30" fill="none" xmlns="http://www.w3.org/2000/svg">
<path d="M15.0947 23.4438C15.5073 23.4438 15.8669 23.2903 16.1732 22.9833C16.4796 22.6762 16.6327 22.312 16.6327 21.8906C16.6327 21.4692 16.4792 21.1096 16.1722 20.812C15.8652 20.5144 15.5019 20.3656 15.0824 20.3656C14.6629 20.3656 14.3034 20.5142 14.0038 20.8114C13.7043 21.1086 13.5545 21.4724 13.5545 21.9029C13.5545 22.3175 13.7055 22.678 14.0075 22.9843C14.3095 23.2907 14.6719 23.4438 15.0947 23.4438ZM15.0022 30C12.9221 30 10.9735 29.6091 9.1564 28.8274C7.33932 28.0457 5.74984 26.9739 4.38794 25.6121C3.02606 24.2502 1.95427 22.6607 1.17256 20.8437C0.390853 19.0267 0 17.0771 0 14.995C0 12.9128 0.390853 10.9623 1.17256 9.14337C1.95427 7.32448 3.025 5.73977 4.38475 4.38924C5.74448 3.0387 7.33335 1.96953 9.15137 1.18172C10.9694 0.393906 12.92 0 15.0033 0C17.0867 0 19.0386 0.393375 20.8591 1.18013C22.6796 1.96688 24.2646 3.03461 25.6141 4.38334C26.9636 5.73206 28.032 7.31807 28.8192 9.14134C29.6064 10.9646 30 12.9177 30 15.0006C30 17.0826 29.6061 19.032 28.8183 20.8489C28.0305 22.6658 26.9613 24.2521 25.6108 25.6079C24.2602 26.9637 22.6745 28.0346 20.8537 28.8208C19.0328 29.6069 17.0823 30 15.0022 30ZM15.0079 27.1326C18.3678 27.1326 21.2251 25.9535 23.58 23.5952C25.9348 21.2368 27.1122 18.3692 27.1122 14.9921C27.1122 11.6322 25.937 8.77486 23.5867 6.42004C21.2364 4.06522 18.3674 2.8878 14.9795 2.8878C11.6249 2.8878 8.76752 4.06296 6.40744 6.41327C4.04738 8.76355 2.86735 11.6326 2.86735 15.0205C2.86735 18.3751 4.04651 21.2325 6.40483 23.5926C8.76316 25.9526 11.6308 27.1326 15.0079 27.1326ZM15.0496 8.82235C15.696 8.82235 16.2663 9.02461 16.7603 9.42913C17.2544 9.83366 17.5014 10.3436 17.5014 10.9588C17.5014 11.5404 17.3297 12.0509 16.9862 12.4904C16.6427 12.9299 16.2537 13.3292 15.8191 13.6883C15.2641 14.1604 14.7781 14.6833 14.3611 15.257C13.944 15.8308 13.7355 16.4677 13.7355 17.1678C13.7355 17.468 13.8512 17.7082 14.0825 17.8887C14.3139 18.0691 14.5838 18.1593 14.8922 18.1593C15.2227 18.1593 15.5 18.0491 15.7241 17.8288C15.9482 17.6085 16.1079 17.3399 16.2031 17.023C16.2892 16.5572 16.4717 16.136 16.7506 15.7595C17.0296 15.3829 17.364 15.0424 17.7537 14.7379C18.3378 14.2637 18.816 13.6933 19.1885 13.0266C19.5609 12.3598 19.7472 11.6551 19.7472 10.9123C19.7472 9.67952 19.3015 8.64189 18.4103 7.79942C17.519 6.95695 16.4617 6.53572 15.2385 6.53572C14.3293 6.53572 13.4678 6.72692 12.6539 7.10931C11.8401 7.49173 11.1593 8.04648 10.6116 8.77356C10.4291 9.04213 10.3468 9.33542 10.3649 9.65344C10.3829 9.97145 10.5215 10.229 10.7805 10.426C11.0969 10.6326 11.4265 10.6964 11.7694 10.6172C12.1123 10.538 12.3957 10.352 12.6198 10.0593C12.9001 9.68185 13.2535 9.38133 13.6798 9.15774C14.1061 8.93414 14.5627 8.82235 15.0496 8.82235Z" fill="white"/>
</svg>
