<svg width="30" height="30" viewBox="0 0 30 30" fill="none" xmlns="http://www.w3.org/2000/svg">
<path d="M15.1004 22.4744C15.4724 22.4744 15.7836 22.3488 16.0338 22.0975C16.2841 21.8463 16.4093 21.5349 16.4093 21.1635V14.8733C16.4093 14.5019 16.2835 14.1905 16.0318 13.9393C15.7802 13.688 15.4683 13.5624 15.0963 13.5624C14.7243 13.5624 14.4132 13.688 14.1629 13.9393C13.9126 14.1905 13.7874 14.5019 13.7874 14.8733V21.1635C13.7874 21.5349 13.9133 21.8463 14.1649 22.0975C14.4166 22.3488 14.7284 22.4744 15.1004 22.4744ZM14.9909 11.1908C15.4166 11.1908 15.7731 11.0504 16.0603 10.7696C16.3475 10.4887 16.4911 10.1408 16.4911 9.72565C16.4911 9.27467 16.3473 8.90567 16.0597 8.61864C15.772 8.33161 15.4156 8.18809 14.9904 8.18809C14.5499 8.18809 14.1894 8.33161 13.909 8.61864C13.6286 8.90567 13.4884 9.27126 13.4884 9.71541C13.4884 10.1391 13.6324 10.4909 13.9204 10.7708C14.2084 11.0508 14.5652 11.1908 14.9909 11.1908ZM15.0022 30C12.9221 30 10.9735 29.6091 9.1564 28.8274C7.33932 28.0457 5.74984 26.9739 4.38794 25.6121C3.02606 24.2502 1.95427 22.6607 1.17256 20.8437C0.390853 19.0267 0 17.0771 0 14.995C0 12.9128 0.390853 10.9623 1.17256 9.14337C1.95427 7.32448 3.025 5.73977 4.38475 4.38924C5.74448 3.0387 7.33335 1.96953 9.15137 1.18172C10.9694 0.393906 12.92 0 15.0033 0C17.0867 0 19.0386 0.393375 20.8591 1.18013C22.6796 1.96688 24.2646 3.03461 25.6141 4.38334C26.9636 5.73206 28.032 7.31807 28.8192 9.14134C29.6064 10.9646 30 12.9177 30 15.0006C30 17.0826 29.6061 19.032 28.8183 20.8489C28.0305 22.6658 26.9613 24.2521 25.6108 25.6079C24.2602 26.9637 22.6745 28.0346 20.8537 28.8208C19.0328 29.6069 17.0823 30 15.0022 30ZM15.0079 27.1326C18.3678 27.1326 21.2251 25.9535 23.58 23.5952C25.9348 21.2368 27.1122 18.3692 27.1122 14.9921C27.1122 11.6322 25.937 8.77486 23.5867 6.42004C21.2364 4.06522 18.3674 2.8878 14.9795 2.8878C11.6249 2.8878 8.76752 4.06296 6.40744 6.41327C4.04738 8.76355 2.86735 11.6326 2.86735 15.0205C2.86735 18.3751 4.04651 21.2325 6.40483 23.5926C8.76316 25.9526 11.6308 27.1326 15.0079 27.1326Z" fill="white"/>
</svg>
