<svg width="26" height="30" viewBox="0 0 26 30" fill="none" xmlns="http://www.w3.org/2000/svg">
<path d="M4.28571 10V8.57143C4.28571 6.29814 5.18877 4.11797 6.79623 2.51051C8.40368 0.903059 10.5839 0 12.8571 0C15.1304 0 17.3106 0.903059 18.9181 2.51051C20.5255 4.11797 21.4286 6.29814 21.4286 8.57143V10H24.2857C24.6646 10 25.028 10.1505 25.2959 10.4184C25.5638 10.6863 25.7143 11.0497 25.7143 11.4286V28.5714C25.7143 28.9503 25.5638 29.3137 25.2959 29.5816C25.028 29.8495 24.6646 30 24.2857 30H1.42857C1.04969 30 0.686328 29.8495 0.418419 29.5816C0.15051 29.3137 0 28.9503 0 28.5714V11.4286C0 11.0497 0.15051 10.6863 0.418419 10.4184C0.686328 10.1505 1.04969 10 1.42857 10H4.28571ZM22.8571 12.8571H2.85714V27.1429H22.8571V12.8571ZM11.4286 21.0457C10.8839 20.7312 10.4582 20.2458 10.2175 19.6647C9.9768 19.0837 9.93457 18.4394 10.0974 17.8319C10.2601 17.2243 10.6188 16.6875 11.1178 16.3046C11.6168 15.9217 12.2282 15.7142 12.8571 15.7142C13.4861 15.7142 14.0975 15.9217 14.5965 16.3046C15.0954 16.6875 15.4541 17.2243 15.6169 17.8319C15.7797 18.4394 15.7375 19.0837 15.4968 19.6647C15.2561 20.2458 14.8304 20.7312 14.2857 21.0457V24.2857H11.4286V21.0457ZM7.14286 10H18.5714V8.57143C18.5714 7.05591 17.9694 5.60245 16.8978 4.53082C15.8261 3.45918 14.3727 2.85714 12.8571 2.85714C11.3416 2.85714 9.88817 3.45918 8.81653 4.53082C7.7449 5.60245 7.14286 7.05591 7.14286 8.57143V10Z" fill="#425270"/>
</svg>
