<svg width="30" height="30" viewBox="0 0 30 30" fill="none" xmlns="http://www.w3.org/2000/svg">
<path d="M27.2727 0H2.72727H2C0.895431 0 0 0.89594 0 2.00051C0 2.41608 0 2.74772 0 2.80795V27.3533V27.9999C0 29.1044 0.895686 29.9999 2.00026 29.9999C2.37576 29.9999 2.67002 29.9999 2.72726 29.9999H27.2727C27.33 29.9999 27.6242 29.9999 27.9997 29.9999C29.1043 29.9999 30 29.1038 30 27.9992C30 27.6646 30 27.4072 30 27.3533V2.80792C30 2.74769 30 2.41606 30 2.00051C30 0.895938 29.1043 0 27.9997 0C27.6242 0 27.33 0 27.2727 0ZM17.7273 27.3533H2.72727V16.4442H17.7273V27.3533ZM17.7273 13.717H2.72727V2.80795L17.7273 2.80792V13.717ZM27.2727 27.3533H20.4545V2.80795H27.2727V27.3533Z" fill="#42526e"/>
</svg>
