<svg width="30" height="30" viewBox="0 0 30 30" xmlns="http://www.w3.org/2000/svg">
<path d="M2.81638 30C2.04592 30 1.38391 29.7237 0.83036 29.1711C0.276787 28.6183 0 27.9572 0 27.1879V6.25013C0 5.47532 0.276787 4.80958 0.83036 4.25292C1.38391 3.69629 2.04592 3.41797 2.81638 3.41797H17.195L14.3786 6.25013H2.81638V27.1879H23.7861V15.5769L26.6225 12.7448V27.1879C26.6225 27.9572 26.3438 28.6183 25.7863 29.1711C25.2288 29.7237 24.562 30 23.7861 30H2.81638ZM19.5105 4.12332L21.3407 5.9152L11.3289 15.8563V18.6884H14.1297L24.1771 8.69642L25.9316 10.4482L16.0403 20.38C15.7703 20.6496 15.4572 20.8569 15.101 21.002C14.7448 21.1471 14.3808 21.2196 14.0092 21.2196H10.202C9.8001 21.2196 9.46493 21.0856 9.19646 20.8176C8.92802 20.5495 8.79379 20.2148 8.79379 19.8136V16.0122C8.79379 15.6411 8.86979 15.2777 9.02179 14.922C9.17379 14.5663 9.38479 14.2537 9.6548 13.9841L19.5105 4.12332ZM25.9316 10.4482L19.5105 4.12332L22.8447 0.814274C23.395 0.264808 24.0661 -0.00657637 24.858 0.000120975C25.65 0.00679465 26.3211 0.296697 26.8714 0.869829L29.2148 3.24509C29.7383 3.81822 30 4.48532 30 5.24638C30 6.00746 29.7197 6.66205 29.1591 7.21014L25.9316 10.4482Z" fill="#42526e"/>
</svg>
